
<!-- VIEWBOX !!!!!!!!! -->


<svg xmlns="http://www.w3.org/2000/svg">
	<symbol id="clip" viewBox="0 0 22 22">
  		<g><path d="M7.33317 20.7086C6.50015 20.7086 5.68798 20.5505 4.91913 20.2386C4.12255 19.9155 3.40823 19.4414 2.7959 18.8293C2.18357 18.2171 1.70942 17.5026 1.38652 16.706C1.07463 15.9372 0.916504 15.125 0.916504 14.292C0.916504 13.459 1.07463 12.6466 1.38652 11.8777C1.70942 11.0811 2.1838 10.3668 2.7959 9.75448L2.7975 9.75287L11.2526 1.33833C11.6885 0.902687 12.1972 0.564896 12.7647 0.334812C13.3121 0.11275 13.8903 0 14.4834 0C15.0763 0 15.6544 0.11275 16.2021 0.334812C16.7696 0.564896 17.2781 0.902687 17.7142 1.33833C18.1501 1.77421 18.4876 2.28296 18.7179 2.85037C18.94 3.39808 19.0525 3.97627 19.0525 4.56935C19.0525 5.16244 18.94 5.74062 18.7179 6.28833C18.4876 6.85575 18.1501 7.36427 17.7142 7.80037L9.27765 16.2365C9.01525 16.4989 8.70932 16.7019 8.3674 16.8408C8.03786 16.9744 7.68975 17.0422 7.33294 17.0422C6.97613 17.0422 6.62825 16.9744 6.29848 16.8408C5.9568 16.7021 5.65063 16.4989 5.38823 16.2365C5.12584 15.9743 4.9228 15.6681 4.78415 15.3264C4.651 14.9967 4.58317 14.6488 4.58317 14.292C4.58317 13.9352 4.651 13.5871 4.78461 13.2575C4.92302 12.9158 5.1263 12.6094 5.38869 12.347L13.1668 4.56912C13.5248 4.21117 14.1053 4.21117 14.4632 4.56912C14.8212 4.92708 14.8212 5.50756 14.4632 5.86552L6.68509 13.6434C6.51184 13.8169 6.4165 14.0472 6.4165 14.292C6.4165 14.5367 6.51184 14.7668 6.68509 14.9401C6.85811 15.1133 7.08842 15.2086 7.33317 15.2086C7.57792 15.2086 7.80823 15.1133 7.98125 14.9401L16.4178 6.50375C16.9346 5.98698 17.2192 5.29994 17.2192 4.56935C17.2192 3.83877 16.9346 3.1515 16.4178 2.63496C15.9013 2.11796 15.2142 1.83333 14.4834 1.83333C13.7526 1.83333 13.0653 2.11796 12.549 2.63473L12.5474 2.63633L4.09161 11.0516C3.65413 11.4893 3.31542 11.9992 3.08511 12.5668C2.86282 13.1157 2.74984 13.6964 2.74984 14.292C2.74984 14.8876 2.86282 15.4681 3.08534 16.0169C3.31588 16.585 3.65436 17.0949 4.09252 17.5326C4.53023 17.9703 5.04036 18.3093 5.608 18.5396C6.15709 18.7623 6.73757 18.8753 7.33317 18.8753C7.92877 18.8753 8.50948 18.7623 9.05834 18.5396C9.62644 18.3093 10.1361 17.9706 10.574 17.5326L19.0005 9.10617C19.3585 8.74821 19.9389 8.74821 20.2967 9.10617C20.6546 9.46412 20.6546 10.0446 20.2967 10.4026L11.8702 18.829C11.2581 19.4411 10.5438 19.9153 9.74698 20.2384C8.97859 20.5505 8.16619 20.7086 7.33317 20.7086Z"/></g>
	</symbol>
	<symbol id="arrows" viewBox="0 0 10 12">
  		<path d="M4.94971 11.7988L-4.07696e-05 6.84908L9.89945 6.84908L4.94971 11.7988Z"/>
		<path d="M4.94971 0L-4.07696e-05 4.94975L9.89945 4.94975L4.94971 0Z"/>
	</symbol>
	<symbol id="popup-close-icon" viewBox="0 0 25 25">
  		<path d="M5.46875 5.46875L19.5312 19.5312" stroke-width="2" stroke-linecap="round" stroke-linejoin="round"/>
		<path d="M5.46875 19.5312L19.5312 5.46875" stroke-width="2" stroke-linecap="round" stroke-linejoin="round"/>
	</symbol>
	<symbol id="hero-icon" viewBox="0 0 10 17">
  		<path d="M2.96926 1.31787L2.65029 0.370109L0.754763 1.00806L1.07374 1.95583L2.96926 1.31787ZM1.1067 13.3233L0.793222 14.273L2.69242 14.8999L3.00589 13.9502L1.1067 13.3233ZM1.07374 1.95583C2.16223 5.19004 3.95855 6.88679 5.56039 7.75452C6.34977 8.18213 7.07147 8.39756 7.60445 8.50622C7.87121 8.56061 8.09207 8.58855 8.25254 8.60289C8.33284 8.61007 8.39825 8.61386 8.44697 8.61586C8.47136 8.61685 8.49158 8.6174 8.50745 8.61769C8.51538 8.61784 8.52222 8.61792 8.52795 8.61796C8.53081 8.61799 8.5334 8.618 8.5357 8.618C8.53685 8.61801 8.53794 8.618 8.53895 8.61801C8.53945 8.61801 8.54016 8.61801 8.54041 8.61801C8.54109 8.61801 8.54176 8.618 8.53887 7.61801C8.53598 6.61801 8.53661 6.61801 8.53723 6.61801C8.53741 6.61801 8.53802 6.61801 8.53838 6.61801C8.53912 6.61801 8.53979 6.61801 8.5404 6.61801C8.54161 6.61802 8.54256 6.61802 8.54325 6.61802C8.54464 6.61804 8.545 6.61805 8.54435 6.61804C8.54307 6.61801 8.53778 6.6179 8.5287 6.61752C8.51054 6.61679 8.47729 6.615 8.43061 6.61083C8.3371 6.60247 8.19064 6.58459 8.004 6.54654C7.63019 6.47033 7.10082 6.31438 6.51302 5.99597C5.36052 5.37165 3.89816 4.07784 2.96926 1.31787L1.07374 1.95583ZM8.53887 7.61801C8.53598 6.61801 8.53531 6.61801 8.53462 6.61802C8.53437 6.61802 8.53366 6.61802 8.53316 6.61802C8.53215 6.61803 8.53107 6.61804 8.52992 6.61805C8.52761 6.61807 8.52503 6.61809 8.52216 6.61813C8.51644 6.61821 8.50959 6.61833 8.50166 6.61852C8.4858 6.61891 8.46558 6.61958 8.44121 6.62071C8.39249 6.62299 8.3271 6.62716 8.24684 6.6348C8.08646 6.65008 7.86577 6.67929 7.59934 6.73521C7.06699 6.84696 6.34654 7.06656 5.55966 7.49874C3.96287 8.37572 2.17643 10.0828 1.1067 13.3233L3.00589 13.9502C3.91875 11.185 5.3736 9.88266 6.52245 9.25174C7.10839 8.92994 7.63685 8.77093 8.0102 8.69256C8.19662 8.65342 8.34298 8.63469 8.43643 8.6258C8.4831 8.62135 8.51632 8.61938 8.53449 8.61853C8.54357 8.61811 8.54885 8.61796 8.55014 8.61794C8.55078 8.61792 8.55043 8.61793 8.54904 8.61795C8.54834 8.61796 8.54739 8.61797 8.54618 8.61798C8.54558 8.61798 8.54491 8.61799 8.54417 8.618C8.5438 8.618 8.5432 8.618 8.54302 8.618C8.5424 8.618 8.54176 8.618 8.53887 7.61801Z"/>
	</symbol>
	<symbol id="hero-slider-icon" viewBox="0 0 49 17" >
  		<g>
			<path fill-rule="evenodd" clip-rule="evenodd" d="M6.07425 2.51519L6.3877 1.56559L8.28692 2.19254L7.97347 3.14213C7.24903 5.33655 6.19595 6.82781 5.09567 7.83427L48.0382 7.70977L48.044 9.70976L5.10146 9.83426C6.20757 10.8343 7.26928 12.3194 8.00643 14.5096L8.32538 15.4574L6.42982 16.0954L6.11087 15.1476C5.18197 12.3877 3.71961 11.0938 2.56719 10.4695C1.97937 10.1511 1.45001 9.99517 1.07619 9.91897C0.88948 9.88092 0.743028 9.86304 0.649604 9.85469C0.602892 9.85051 0.569588 9.84874 0.551485 9.84799L0.536881 9.84749L0.539784 9.8475L0.541783 9.84751L0.542981 9.8475C0.54358 9.84751 0.544183 9.84751 0.541283 8.84752C0.538384 7.84752 0.537785 7.84752 0.537083 7.84752L0.535985 7.84753L0.533986 7.84754L0.531083 7.84757C0.529683 7.84758 0.529385 7.8476 0.529984 7.84758M0.531083 7.84757L0.545684 7.84699C0.563782 7.84614 0.597075 7.84417 0.643663 7.83972C0.737136 7.83082 0.883482 7.81209 1.06997 7.77296C1.44324 7.69459 1.97179 7.53556 2.55765 7.21375C3.70653 6.58277 5.16136 5.28049 6.07425 2.51519"/>
		</g>
	</symbol>
</svg>